<svg width="60" height="60" viewBox="0 0 60 60" fill="none" xmlns="http://www.w3.org/2000/svg">
<path d="M30.0683 0H29.9317C13.4009 0 0 13.4009 0 29.9317V30.0683C0 46.5991 13.4009 60 29.9317 60H30.0683C46.5991 60 60 46.5991 60 30.0683V29.9317C60 13.4009 46.5991 0 30.0683 0Z" fill="black"/>
<path d="M27.6781 31.1298C27.1568 30.4761 26.5598 29.9758 25.8913 29.6374C26.482 29.2779 26.9907 28.8365 27.4111 28.3109C28.1195 27.4239 28.479 26.3119 28.479 25.0044C28.479 23.9134 28.191 22.9107 27.6213 22.0257C27.0538 21.1407 26.2087 20.4302 25.1093 19.9131C24.0331 19.4065 22.7361 19.15 21.2583 19.15H12.8521V40.8583H21.6451C23.085 40.8583 24.3715 40.5956 25.4667 40.0784C26.5829 39.5529 27.4532 38.8172 28.0502 37.8944C28.6493 36.9674 28.9541 35.9142 28.9541 34.7644C28.9541 33.4169 28.5252 32.1956 27.6781 31.1319V31.1298ZM23.2133 27.1737C22.694 27.5941 21.9352 27.8085 20.9619 27.8085H17.3253V22.999H20.9619C21.931 22.999 22.6856 23.2197 23.2049 23.6569C23.703 24.0752 23.9448 24.6533 23.9448 25.4185C23.9448 26.1836 23.7051 26.7764 23.2133 27.1737ZM17.3253 31.6596H21.2289C22.2505 31.6596 23.0367 31.9076 23.6316 32.4184C24.2012 32.9082 24.4787 33.5578 24.4787 34.407C24.4787 35.2562 24.2223 35.8553 23.6925 36.3031C23.1439 36.7677 22.3556 37.0031 21.3466 37.0031H17.3253V31.6596Z" fill="white"/>
<path d="M46.1279 27.4995C45.451 26.2761 44.4924 25.3113 43.2774 24.6344C42.0645 23.9575 40.6624 23.6149 39.1153 23.6149C37.5682 23.6149 36.061 23.968 34.8186 24.6638C33.5742 25.3617 32.5946 26.3644 31.9093 27.6488C31.224 28.9311 30.8772 30.4362 30.8772 32.122C30.8772 33.8079 31.2346 35.3151 31.9409 36.5953C32.6472 37.8776 33.6351 38.8866 34.8796 39.5929C36.1219 40.2992 37.5471 40.6565 39.1174 40.6565C41.045 40.6565 42.6825 40.1667 43.9858 39.2019C45.2891 38.237 46.2014 36.98 46.6996 35.4686L46.7354 35.3614H42.9222L42.8991 35.4076C42.1654 36.8938 40.8937 37.6463 39.1153 37.6463C37.8772 37.6463 36.8177 37.2532 35.9664 36.4818C35.136 35.7271 34.6589 34.7181 34.5475 33.48H47.0171L47.0276 33.4106C47.1074 32.9124 47.1474 32.3491 47.1474 31.7373C47.1474 30.1482 46.8047 28.723 46.1279 27.4995ZM36.0252 27.7181C36.8366 26.9929 37.8267 26.6272 38.966 26.6272C40.2252 26.6272 41.2952 26.9992 42.1465 27.735C42.9747 28.4497 43.4141 29.4103 43.4519 30.5875H34.5832C34.7514 29.3914 35.2369 28.4266 36.0273 27.7203L36.0252 27.7181Z" fill="white"/>
<path d="M43.164 19.6483H34.8586V21.6158H43.164V19.6483Z" fill="white"/>
</svg>
