<svg width="16" height="16" viewBox="0 0 16 16" fill="none" xmlns="http://www.w3.org/2000/svg">
<path d="M5.606 3.2V2M8 3.2V2M10.4 3.2V2M12.8 5.6H14M12.8 8H14M12.8 10.4H14M10.4 12.8V14M8.006 12.8V14M5.606 12.8V14M2 5.6H3.2M2 8H3.2M2 10.4H3.2M6.56 12.8H9.44C11.84 12.8 12.8 11.84 12.8 9.44V6.56C12.8 4.16 11.84 3.2 9.44 3.2H6.56C4.16 3.2 3.2 4.16 3.2 6.56V9.44C3.2 11.84 4.16 12.8 6.56 12.8ZM7.1 11H8.9C10.4 11 11 10.4 11 8.9V7.1C11 5.6 10.4 5 8.9 5H7.1C5.6 5 5 5.6 5 7.1V8.9C5 10.4 5.6 11 7.1 11Z" stroke="#CCCCCC" stroke-linecap="round" stroke-linejoin="round"/>
</svg>
