<svg width="12" height="12" viewBox="0 0 12 12" fill="none" xmlns="http://www.w3.org/2000/svg">
<path d="M4.28002 1.99999V8.49999M7.86501 3.30956V9.99956M1.14502 3.88999V8.75499C1.14502 9.70499 1.82002 10.095 2.64002 9.62499L3.81502 8.95499C4.07002 8.80999 4.49502 8.79499 4.76002 8.92999L7.38502 10.245C7.65002 10.375 8.07502 10.365 8.33002 10.22L10.495 8.97999C10.77 8.81999 11 8.42999 11 8.10999V3.24499C11 2.29499 10.325 1.90499 9.50502 2.37499L8.33002 3.04499C8.07502 3.18999 7.65002 3.20499 7.38502 3.06999L4.76002 1.75999C4.49502 1.62999 4.07002 1.63999 3.81502 1.78499L1.65002 3.02499C1.37002 3.18499 1.14502 3.57499 1.14502 3.88999Z" stroke="#CCCCCC" stroke-width="0.75" stroke-linecap="round" stroke-linejoin="round"/>
</svg>
