<svg width="60" height="60" viewBox="0 0 60 60" fill="none" xmlns="http://www.w3.org/2000/svg">
<path d="M30.0683 0H29.9317C13.4009 0 0 13.4009 0 29.9317V30.0683C0 46.5991 13.4009 60 29.9317 60H30.0683C46.5991 60 60 46.5991 60 30.0683V29.9317C60 13.4009 46.5991 0 30.0683 0Z" fill="url(#paint0_linear_13_138)"/>
<path d="M39.2839 12.2068H20.7183C15.5892 12.2068 11.4165 16.3795 11.4165 21.5086V38.4935C11.4165 43.6226 15.5892 47.7953 20.7183 47.7953H39.2839C44.413 47.7953 48.5857 43.6226 48.5857 38.4935V21.5086C48.5857 16.3795 44.413 12.2068 39.2839 12.2068ZM14.6979 21.5086C14.6979 18.1894 17.3991 15.4882 20.7183 15.4882H39.2839C42.6031 15.4882 45.3043 18.1894 45.3043 21.5086V38.4935C45.3043 41.8127 42.6031 44.5139 39.2839 44.5139H20.7183C17.3991 44.5139 14.6979 41.8127 14.6979 38.4935V21.5086Z" fill="white"/>
<path d="M30.0011 38.6512C34.7707 38.6512 38.6533 34.7707 38.6533 29.999C38.6533 25.2272 34.7728 21.3467 30.0011 21.3467C25.2293 21.3467 21.3489 25.2272 21.3489 29.999C21.3489 34.7707 25.2293 38.6512 30.0011 38.6512ZM30.0011 24.6302C32.9629 24.6302 35.3719 27.0392 35.3719 30.0011C35.3719 32.9629 32.9629 35.3719 30.0011 35.3719C27.0392 35.3719 24.6302 32.9629 24.6302 30.0011C24.6302 27.0392 27.0392 24.6302 30.0011 24.6302Z" fill="white"/>
<path d="M39.4543 22.7446C40.7386 22.7446 41.7855 21.6999 41.7855 20.4134C41.7855 19.1269 40.7407 18.0822 39.4543 18.0822C38.1678 18.0822 37.123 19.1269 37.123 20.4134C37.123 21.6999 38.1678 22.7446 39.4543 22.7446Z" fill="white"/>
<defs>
<linearGradient id="paint0_linear_13_138" x1="8.76572" y1="51.2343" x2="51.2343" y2="8.76783" gradientUnits="userSpaceOnUse">
<stop stop-color="#FAAD4F"/>
<stop offset="0.35" stop-color="#DD2A7B"/>
<stop offset="0.62" stop-color="#9537B0"/>
<stop offset="1" stop-color="#515BD4"/>
</linearGradient>
</defs>
</svg>
