<svg width="12" height="12" viewBox="0 0 12 12" fill="none" xmlns="http://www.w3.org/2000/svg">
<rect x="0.25" y="0.25" width="11.5" height="11.5" rx="1.75" stroke="#CCCCCC" stroke-width="0.5"/>
<path d="M2.96806 4.05659C2.81533 3.91484 2.73938 3.73936 2.73938 3.53058C2.73938 3.3218 2.81574 3.13861 2.96806 2.99644C3.12078 2.85468 3.31738 2.7836 3.55825 2.7836C3.79912 2.7836 3.988 2.85468 4.14032 2.99644C4.29305 3.1382 4.369 3.31652 4.369 3.53058C4.369 3.74464 4.29264 3.91484 4.14032 4.05659C3.98759 4.19835 3.79384 4.26944 3.55825 4.26944C3.32266 4.26944 3.12078 4.19835 2.96806 4.05659ZM4.24065 4.86978V9.21599H2.86732V4.86978H4.24065Z" fill="#CCCCCC"/>
<path d="M8.81227 5.29913C9.11163 5.62408 9.26111 6.07008 9.26111 6.63793V9.13923H7.95685V6.81421C7.95685 6.52785 7.88251 6.30526 7.73426 6.14685C7.586 5.98844 7.38615 5.90882 7.13594 5.90882C6.88573 5.90882 6.68588 5.98803 6.53762 6.14685C6.38936 6.30526 6.31503 6.52785 6.31503 6.81421V9.13923H5.00305V4.85761H6.31503V5.42546C6.44785 5.23618 6.62699 5.0867 6.85202 4.97662C7.07705 4.86654 7.3301 4.81171 7.61159 4.81171C8.11282 4.81171 8.51331 4.97418 8.81227 5.29913Z" fill="#CCCCCC"/>
</svg>
