<svg width="61" height="61" viewBox="0 0 61 61" fill="none" xmlns="http://www.w3.org/2000/svg">
<path d="M30.8232 0.775146H30.6866C14.1558 0.775146 0.754883 14.176 0.754883 30.7068V30.8435C0.754883 47.3743 14.1558 60.7751 30.6866 60.7751H30.8232C47.354 60.7751 60.7549 47.3743 60.7549 30.8435V30.7068C60.7549 14.176 47.354 0.775146 30.8232 0.775146Z" fill="#007EBB"/>
<path d="M15.0638 20.7198C14.2734 19.9862 13.8804 19.0781 13.8804 17.9976C13.8804 16.9171 14.2755 15.9691 15.0638 15.2333C15.8542 14.4997 16.8716 14.1318 18.1182 14.1318C19.3647 14.1318 20.3422 14.4997 21.1305 15.2333C21.9209 15.967 22.3139 16.8898 22.3139 17.9976C22.3139 19.1054 21.9188 19.9862 21.1305 20.7198C20.3401 21.4534 19.3374 21.8213 18.1182 21.8213C16.899 21.8213 15.8542 21.4534 15.0638 20.7198ZM21.6497 24.9282V47.4206H14.5425V24.9282H21.6497Z" fill="#FEFFFC"/>
<path d="M45.3086 27.15C46.8578 28.8317 47.6314 31.1398 47.6314 34.0785V47.0232H40.8816V34.9908C40.8816 33.5088 40.4969 32.3569 39.7297 31.5371C38.9624 30.7173 37.9282 30.3052 36.6333 30.3052C35.3384 30.3052 34.3041 30.7152 33.5369 31.5371C32.7696 32.3569 32.3849 33.5088 32.3849 34.9908V47.0232H25.5952V24.865H32.3849V27.8038C33.0723 26.8242 33.9994 26.0506 35.1639 25.481C36.3285 24.9113 37.6381 24.6275 39.0948 24.6275C41.6888 24.6275 43.7614 25.4683 45.3086 27.15Z" fill="#FEFFFC"/>
</svg>
