<svg width="12" height="12" viewBox="0 0 12 12" fill="none" xmlns="http://www.w3.org/2000/svg">
<g clip-path="url(#clip0_105_58)">
<path d="M2.14287 11.5028C3.08965 11.5028 3.85716 10.7353 3.85716 9.78849C3.85716 8.84177 3.08965 8.07422 2.14287 8.07422C1.1961 8.07422 0.428589 8.84177 0.428589 9.78849C0.428589 10.7353 1.1961 11.5028 2.14287 11.5028Z" stroke="#CCCCCC" stroke-width="0.857143" stroke-linecap="round" stroke-linejoin="round"/>
<path d="M9.85711 9.35995C10.8039 9.35995 11.5714 8.59247 11.5714 7.64568C11.5714 6.69891 10.8039 5.9314 9.85711 5.9314C8.91031 5.9314 8.14282 6.69891 8.14282 7.64568C8.14282 8.59247 8.91031 9.35995 9.85711 9.35995Z" stroke="#CCCCCC" stroke-width="0.857143" stroke-linecap="round" stroke-linejoin="round"/>
<path d="M11.5715 7.64568V0.92568C11.5711 0.8601 11.5557 0.795483 11.5264 0.736798C11.4971 0.678113 11.4548 0.626928 11.4026 0.587184C11.3505 0.54744 11.2899 0.520196 11.2255 0.507553C11.1611 0.494909 11.0948 0.497201 11.0315 0.514252L4.17432 2.41711C4.0837 2.44151 4.0036 2.49497 3.94631 2.56929C3.88902 2.64363 3.8577 2.7347 3.85718 2.82854V9.78857" stroke="#CCCCCC" stroke-width="0.857143" stroke-linecap="round" stroke-linejoin="round"/>
<path d="M3.85718 5.07425L11.5715 2.9314" stroke="#CCCCCC" stroke-width="0.857143" stroke-linecap="round" stroke-linejoin="round"/>
</g>
<defs>
<clipPath id="clip0_105_58">
<rect width="12" height="12" fill="white"/>
</clipPath>
</defs>
</svg>
