<svg width="16" height="16" viewBox="0 0 16 16" fill="none" xmlns="http://www.w3.org/2000/svg">
<path d="M2 3.33333C2 2.70479 2 2.39052 2.19526 2.19526C2.39052 2 2.70479 2 3.33333 2H5.33333C5.96187 2 6.27614 2 6.4714 2.19526C6.66667 2.39052 6.66667 2.70479 6.66667 3.33333V5.33333C6.66667 5.96187 6.66667 6.27614 6.4714 6.4714C6.27614 6.66667 5.96187 6.66667 5.33333 6.66667H3.33333C2.70479 6.66667 2.39052 6.66667 2.19526 6.4714C2 6.27614 2 5.96187 2 5.33333V3.33333Z" stroke="#CCCCCC" stroke-miterlimit="10"/>
<path d="M2 10.6667C2 10.0381 2 9.72386 2.19526 9.5286C2.39052 9.33333 2.70479 9.33333 3.33333 9.33333H5.33333C5.96187 9.33333 6.27614 9.33333 6.4714 9.5286C6.66667 9.72386 6.66667 10.0381 6.66667 10.6667V12.6667C6.66667 13.2952 6.66667 13.6095 6.4714 13.8047C6.27614 14 5.96187 14 5.33333 14H3.33333C2.70479 14 2.39052 14 2.19526 13.8047C2 13.6095 2 13.2952 2 12.6667V10.6667Z" stroke="#CCCCCC" stroke-miterlimit="10"/>
<path d="M9.33333 3.33333C9.33333 2.70479 9.33333 2.39052 9.5286 2.19526C9.72386 2 10.0381 2 10.6667 2H12.6667C13.2952 2 13.6095 2 13.8047 2.19526C14 2.39052 14 2.70479 14 3.33333V5.33333C14 5.96187 14 6.27614 13.8047 6.4714C13.6095 6.66667 13.2952 6.66667 12.6667 6.66667H10.6667C10.0381 6.66667 9.72386 6.66667 9.5286 6.4714C9.33333 6.27614 9.33333 5.96187 9.33333 5.33333V3.33333Z" stroke="#CCCCCC" stroke-miterlimit="10"/>
<path d="M9.33333 10.6667C9.33333 10.0381 9.33333 9.72386 9.5286 9.5286C9.72386 9.33333 10.0381 9.33333 10.6667 9.33333H12.6667C13.2952 9.33333 13.6095 9.33333 13.8047 9.5286C14 9.72386 14 10.0381 14 10.6667V12.6667C14 13.2952 14 13.6095 13.8047 13.8047C13.6095 14 13.2952 14 12.6667 14H10.6667C10.0381 14 9.72386 14 9.5286 13.8047C9.33333 13.6095 9.33333 13.2952 9.33333 12.6667V10.6667Z" stroke="#CCCCCC" stroke-miterlimit="10"/>
</svg>
