<svg width="16" height="16" viewBox="0 0 16 16" fill="none" xmlns="http://www.w3.org/2000/svg">
<path d="M7.99992 10C9.10449 10 9.99992 9.10457 9.99992 8C9.99992 6.89543 9.10449 6 7.99992 6C6.89535 6 5.99992 6.89543 5.99992 8C5.99992 9.10457 6.89535 10 7.99992 10Z" stroke="#CCCCCC" stroke-miterlimit="10" stroke-linecap="round" stroke-linejoin="round"/>
<path d="M1.33325 8.5863V7.41297C1.33325 6.71963 1.89992 6.1463 2.59992 6.1463C3.80659 6.1463 4.29992 5.29297 3.69325 4.2463C3.34659 3.6463 3.55325 2.8663 4.15992 2.51963L5.31325 1.85963C5.83992 1.5463 6.51992 1.73297 6.83325 2.25963L6.90659 2.3863C7.50659 3.43297 8.49325 3.43297 9.09992 2.3863L9.17325 2.25963C9.48659 1.73297 10.1666 1.5463 10.6933 1.85963L11.8466 2.51963C12.4533 2.8663 12.6599 3.6463 12.3133 4.2463C11.7066 5.29297 12.1999 6.1463 13.4066 6.1463C14.0999 6.1463 14.6733 6.71297 14.6733 7.41297V8.5863C14.6733 9.27963 14.1066 9.85297 13.4066 9.85297C12.1999 9.85297 11.7066 10.7063 12.3133 11.753C12.6599 12.3596 12.4533 13.133 11.8466 13.4796L10.6933 14.1396C10.1666 14.453 9.48659 14.2663 9.17325 13.7396L9.09992 13.613C8.49992 12.5663 7.51325 12.5663 6.90659 13.613L6.83325 13.7396C6.51992 14.2663 5.83992 14.453 5.31325 14.1396L4.15992 13.4796C3.55325 13.133 3.34659 12.353 3.69325 11.753C4.29992 10.7063 3.80659 9.85297 2.59992 9.85297C1.89992 9.85297 1.33325 9.27963 1.33325 8.5863Z" stroke="#CCCCCC" stroke-miterlimit="10" stroke-linecap="round" stroke-linejoin="round"/>
</svg>
