<svg width="12" height="12" viewBox="0 0 12 12" fill="none" xmlns="http://www.w3.org/2000/svg">
<path d="M1.16195 4.9C2.07748 5.94337 3.40796 6.6 4.88879 6.6H7.11101C8.59185 6.6 9.92232 5.94337 10.8379 4.9M8.77778 3.2C8.77778 2.67193 8.77778 2.4079 8.6932 2.19963C8.58043 1.92193 8.36412 1.7013 8.09187 1.58627C7.88768 1.5 7.62882 1.5 7.11111 1.5H4.88889C4.37118 1.5 4.11232 1.5 3.90813 1.58627C3.63588 1.7013 3.41957 1.92193 3.3068 2.19963C3.22222 2.4079 3.22222 2.67193 3.22222 3.2M4.33333 10.5H7.66667C9.23802 10.5 10.0237 10.5 10.5118 10.0021C11 9.50416 11 8.70278 11 6.6C11 4.99722 11 4.19584 10.5118 3.69792C10.0237 3.2 9.23802 3.2 7.66667 3.2H4.33333C2.76198 3.2 1.97631 3.2 1.48816 3.69792C1 4.19584 1 4.99722 1 6.6C1 8.70278 1 9.50416 1.48816 10.0021C1.97631 10.5 2.76198 10.5 4.33333 10.5Z" stroke="#CCCCCC" stroke-width="0.75" stroke-miterlimit="10"/>
</svg>
